<svg width="27" height="24" viewBox="0 0 27 24" fill="none" xmlns="http://www.w3.org/2000/svg">
    <path fill-rule="evenodd" clip-rule="evenodd"
        d="M22.1304 3H4.7391C3.54345 3 2.56519 3.9 2.56519 5V19C2.56519 20.1 3.54345 21 4.7391 21H22.1304C23.3261 21 24.3043 20.1 24.3043 19V5C24.3043 3.9 23.3261 3 22.1304 3ZM10.1739 17H6.91301C6.31519 17 5.82606 16.55 5.82606 16C5.82606 15.45 6.31519 15 6.91301 15H10.1739C10.7717 15 11.2608 15.45 11.2608 16C11.2608 16.55 10.7717 17 10.1739 17ZM10.1739 13H6.91301C6.31519 13 5.82606 12.55 5.82606 12C5.82606 11.45 6.31519 11 6.91301 11H10.1739C10.7717 11 11.2608 11.45 11.2608 12C11.2608 12.55 10.7717 13 10.1739 13ZM10.1739 9H6.91301C6.31519 9 5.82606 8.55 5.82606 8C5.82606 7.45 6.31519 7 6.91301 7H10.1739C10.7717 7 11.2608 7.45 11.2608 8C11.2608 8.55 10.7717 9 10.1739 9ZM20.7174 11.12L17.2717 14.29C16.8478 14.68 16.1521 14.68 15.7282 14.29L14.1956 12.87C13.7717 12.48 13.7717 11.85 14.1956 11.46C14.6195 11.07 15.3043 11.07 15.7282 11.46L16.5 12.17L19.1848 9.7C19.6087 9.31 20.2934 9.31 20.7174 9.7L20.7282 9.71C21.1413 10.1 21.1413 10.74 20.7174 11.12Z"
        fill="black" fill-opacity="0.7" />
</svg>