<svg width="17" height="17" viewBox="0 0 17 17" fill="none" xmlns="http://www.w3.org/2000/svg">
    <g opacity="0.5">
        <path
            d="M12.9625 4.04458C12.8302 3.91195 12.6505 3.83741 12.4631 3.83741C12.2758 3.83741 12.0961 3.91195 11.9638 4.04458L8.50001 7.50125L5.03626 4.0375C4.90392 3.90486 4.72425 3.83032 4.53688 3.83032C4.34952 3.83032 4.16985 3.90486 4.03751 4.0375C3.76126 4.31375 3.76126 4.76 4.03751 5.03625L7.50126 8.5L4.03751 11.9638C3.76126 12.24 3.76126 12.6863 4.03751 12.9625C4.31376 13.2388 4.76001 13.2388 5.03626 12.9625L8.50001 9.49875L11.9638 12.9625C12.24 13.2388 12.6863 13.2388 12.9625 12.9625C13.2388 12.6863 13.2388 12.24 12.9625 11.9638L9.49876 8.5L12.9625 5.03625C13.2317 4.76708 13.2317 4.31375 12.9625 4.04458Z"
            fill="black" />
    </g>
</svg>