<svg width="24" height="24" viewBox="0 0 24 24" fill="none" xmlns="http://www.w3.org/2000/svg">
    <path
        d="M12.0001 3C11.5401 3 11.0701 3.04 10.6001 3.14C7.84007 3.67 5.64007 5.9 5.12007 8.66C4.64007 11.27 5.60007 13.67 7.34007 15.22C7.77007 15.6 8.00007 16.13 8.00007 16.69V19C8.00007 20.1 8.90007 21 10.0001 21H10.2801C10.6301 21.6 11.2601 22 12.0001 22C12.7401 22 13.3801 21.6 13.7201 21H14.0001C15.1001 21 16.0001 20.1 16.0001 19V16.69C16.0001 16.14 16.2201 15.6 16.6401 15.23C18.0901 13.95 19.0001 12.08 19.0001 10C19.0001 6.13 15.8701 3 12.0001 3ZM12.5001 14H11.5001V11.41L9.67007 9.59L10.3801 8.88L12.0001 10.5L13.6201 8.88L14.3301 9.59L12.5001 11.42V14ZM13.5001 19C13.4901 19 13.4801 18.99 13.4701 18.99V19H10.5301V18.99C10.5201 18.99 10.5101 19 10.5001 19C10.2201 19 10.0001 18.78 10.0001 18.5C10.0001 18.22 10.2201 18 10.5001 18C10.5101 18 10.5201 18.01 10.5301 18.01V18H13.4701V18.01C13.4801 18.01 13.4901 18 13.5001 18C13.7801 18 14.0001 18.22 14.0001 18.5C14.0001 18.78 13.7801 19 13.5001 19ZM13.5001 17H10.5001C10.2201 17 10.0001 16.78 10.0001 16.5C10.0001 16.22 10.2201 16 10.5001 16H13.5001C13.7801 16 14.0001 16.22 14.0001 16.5C14.0001 16.78 13.7801 17 13.5001 17Z"
        fill="black" fill-opacity="0.7" />
</svg>