<svg width="126" height="35" viewBox="0 0 126 35" fill="none" xmlns="http://www.w3.org/2000/svg">
    <path opacity="0.1" fill-rule="evenodd" clip-rule="evenodd"
        d="M1 23.3759C1 23.3759 5.88798 22.5829 11.4453 24.488C22.0151 28.1114 22.618 21.4761 26.5374 18.2767C30.1232 15.3496 33.0929 17.1355 37.0854 20.7151C40.0301 23.3552 44.3215 27.787 48.7658 27.0735C52.8284 26.4213 55.7083 21.2236 61.3394 19.9017C65.8024 18.854 69.4294 21.7322 74.5685 20.7151C81.5402 19.3354 84.6544 11.2124 89.637 11.2124C95.7868 11.2124 100.117 4.34229 105.711 4.34229C111.273 4.34229 112.027 8.38208 118.111 11.2124C122.762 13.3762 125 11.2124 125 11.2124V34.3991H1V23.3759Z"
        fill="url(#paint0_linear_2_2782)" />
    <path
        d="M1 19.7745C1 19.7745 5.88798 18.9929 11.4453 20.8705C22.0151 24.4414 22.618 17.9022 26.5374 14.7491C30.1232 11.8644 33.0929 13.6244 37.0854 17.1522C40.0301 19.7541 44.3215 24.1217 48.7658 23.4186C52.8284 22.7758 55.7083 17.6533 61.3394 16.3505C65.8024 15.318 69.4294 18.1546 74.5685 17.1522C81.5402 15.7924 84.6544 7.78703 89.637 7.78703C95.7868 7.78703 100.117 1 105.711 1C111.273 1 111.568 4.99768 117.652 7.78703C122.303 9.91951 125 7.78703 125 7.78703"
        stroke="#1B59F8" stroke-width="2" stroke-linecap="round" stroke-linejoin="round" />
    <defs>
        <linearGradient id="paint0_linear_2_2782" x1="23.41" y1="19.5933" x2="23.41" y2="34.3991"
            gradientUnits="userSpaceOnUse">
            <stop stop-color="#0062FF" />
            <stop offset="1" stop-color="white" stop-opacity="0.01" />
        </linearGradient>
    </defs>
</svg>