<svg width="27" height="24" viewBox="0 0 27 24" fill="none" xmlns="http://www.w3.org/2000/svg">
    <path fill-rule="evenodd" clip-rule="evenodd"
        d="M12.337 8C12.337 9.66 10.8913 11 9.08697 11C7.28262 11 5.8261 9.66 5.8261 8C5.8261 6.34 7.28262 5 9.08697 5C10.8913 5 12.337 6.34 12.337 8ZM21.0326 8C21.0326 9.66 19.587 11 17.7826 11C15.9783 11 14.5217 9.66 14.5217 8C14.5217 6.34 15.9783 5 17.7826 5C19.587 5 21.0326 6.34 21.0326 8ZM9.08697 13C6.55436 13 1.47827 14.17 1.47827 16.5V18C1.47827 18.55 1.9674 19 2.56523 19H15.6087C16.2065 19 16.6957 18.55 16.6957 18V16.5C16.6957 14.17 11.6196 13 9.08697 13ZM16.7283 13.05C17.1087 13.02 17.4674 13 17.7826 13C20.3152 13 25.3913 14.17 25.3913 16.5V18C25.3913 18.55 24.9022 19 24.3044 19H18.6739C18.7935 18.69 18.8696 18.35 18.8696 18V16.5C18.8696 15.03 18.0109 13.92 16.7717 13.09C16.7685 13.087 16.7652 13.083 16.7616 13.0787C16.7533 13.0688 16.7434 13.057 16.7283 13.05Z"
        fill="#4D4D4D" />
</svg>