<svg width="22" height="12" viewBox="0 0 22 12" fill="none" xmlns="http://www.w3.org/2000/svg">
    <path
        d="M15.6657 0.85L17.2059 2.29L11.9864 7.17L8.46757 3.88C8.05044 3.49 7.37662 3.49 6.95949 3.88L0.542096 9.89C0.124965 10.28 0.124965 10.91 0.542096 11.3C0.959226 11.69 1.63305 11.69 2.05018 11.3L7.70818 6L11.227 9.29C11.6442 9.68 12.318 9.68 12.7351 9.29L18.714 3.71L20.2542 5.15C20.5857 5.46 21.1633 5.24 21.1633 4.8V0.5C21.174 0.22 20.9387 0 20.6392 0H16.0508C15.5695 0 15.3342 0.54 15.6657 0.85Z"
        fill="#1B59F8" />
</svg>