<svg width="14" height="14" viewBox="0 0 14 14" fill="none" xmlns="http://www.w3.org/2000/svg">
    <path fill-rule="evenodd" clip-rule="evenodd"
        d="M8.96296 8.45959H9.56761L12.8128 11.7201C13.1266 12.0339 13.1266 12.5467 12.8128 12.8605C12.499 13.1743 11.9862 13.1743 11.6724 12.8605L8.41955 9.60764V9.003L8.2129 8.7887C7.14138 9.70714 5.67952 10.1817 4.12582 9.92145C1.99809 9.56172 0.298973 7.78606 0.0387473 5.64303C-0.359245 2.40551 2.36547 -0.319206 5.60299 0.0787864C7.74602 0.339012 9.52168 2.03813 9.88141 4.16586C10.1416 5.71956 9.6671 7.18142 8.74866 8.25294L8.96296 8.45959ZM1.53121 5.01569C1.53121 6.92146 3.0696 8.45986 4.97537 8.45986C6.88114 8.45986 8.41954 6.92146 8.41954 5.01569C8.41954 3.10992 6.88114 1.57153 4.97537 1.57153C3.0696 1.57153 1.53121 3.10992 1.53121 5.01569Z"
        fill="#9098A3" />
</svg>