<svg width="138" height="17" viewBox="0 0 138 17" fill="none" xmlns="http://www.w3.org/2000/svg">
    <path
        d="M117.939 6.7438V17H121.406V10.1625H134.087V17H137.554V6.7438H117.939ZM121.01 3.41873H134.384C136.266 3.09091 137.604 1.49862 138 0H117.394C117.79 1.49862 119.177 3.04408 121.01 3.41873ZM107.388 17C109.122 16.2975 110.063 15.0799 110.459 13.6749H94.8563V0.046832H91.3394V17H107.388ZM65.3343 3.3719H77.7177C79.6 2.85675 81.1355 1.49862 81.5318 0.046832H61.9165V10.0689H77.9654V13.5813H65.3839C63.4025 14.0964 61.7184 15.3609 60.8763 17H81.4327V6.7438H65.3839L65.3343 3.3719ZM34.8217 3.41873H48.1958C50.078 3.09091 51.465 1.49862 51.8117 0H31.1562C31.5525 1.49862 32.9395 3.04408 34.8217 3.41873ZM34.8217 10.1157H48.1958C50.078 9.78788 51.465 8.19559 51.8117 6.69697H31.1562C31.5525 8.19559 32.9395 9.74105 34.8217 10.1157ZM34.8217 17H48.1958C50.078 16.6722 51.465 15.0799 51.8117 13.5813H31.1562C31.5525 15.0799 32.9395 16.6722 34.8217 17Z"
        fill="#E51837" />
    <path
        d="M0 0.0468319C0.396268 1.54545 1.7832 3.04408 3.61594 3.41873H9.26276L9.55996 3.5124V16.9532H13.0768V3.5124L13.374 3.41873H19.0208C20.9031 2.95041 22.2405 1.54545 22.6368 0.0468319V0L0 0.0468319Z"
        fill="#E51837" />
</svg>